# xmcd
#
# Track frame offsets:
#       150
#       16901
#       28026
#       42581
#       62412
#       85012
#       106825
#       122760
#       145874
#       164819
#       182420
#       203812
#       220305
#       234934
#       256130
#       269443
#       285471
#       306625
#
# Disc length: 4392 seconds
#
# Revision: 1
# Processed by: cddbd v1.5.1PL0 Copyright (c) Steve Scherf et al.
# Submitted via: MusiCat 1.1
#
DISCID=fe112612
DTITLE=Various Artist - We Will Stand
DYEAR=2004
DGENRE=
TTITLE0=I'm So Glad - (with Jessy Dixon/Tramaine Hawkins)
TTITLE1=Bless His Holy Name - (with Jessy Dixon)
TTITLE2=Let's Just Praise The Lord - (with Joy Gardner)
TTITLE3=We Will Stand - (with Russ Taff/Jessy Dixon/Guy Penrod)
TTITLE4=I've Got A Feeling - (with Albertina Walker/Delores Washington)
TTITLE5=All People That On Earth Do Dwell - (with The Martins)
TTITLE6=Until I Found The Lord - (with Jason Crabb)
TTITLE7=His Eye Is On The Sparrow - (with Lynda Randle)
TTITLE8=In The Morning - (with Mary Mary)
TTITLE9=I Must Tell Jesus - (with Mom Winans)
TTITLE10=When I Survey The Wonderous Cross - (with Janet Paschal/Sonya Isaacs/
TTITLE10=Becky Isaacs/Guy Penrod/David Phelps)
TTITLE11=Dream On - (with Larnelle Harris)
TTITLE12=Sweeter As The Days Go By - (with Jake Hess)
TTITLE13=I Came To Jesus - (with Mighty Clouds Of Joy)
TTITLE14=Hebrew Lullaby - (with The Isaacs)
TTITLE15=If That Don't Make You Wanna Go - (with The Isaacs)
TTITLE16=He's That Kind Of Friend - (with Tramaine Hawkins)
TTITLE17=Center Of My Joy - (with Velinda Washington)
EXTD=\n525\n
EXTT0=
EXTT1=
EXTT2=
EXTT3=
EXTT4=
EXTT5=
EXTT6=
EXTT7=
EXTT8=
EXTT9=
EXTT10=
EXTT11=
EXTT12=
EXTT13=
EXTT14=
EXTT15=
EXTT16=
EXTT17=
PLAYORDER=
